<?xml version="1.0"?><svg width="1096.4392" height="420.59384" xmlns="http://www.w3.org/2000/svg">
 <defs>
  <filter color-interpolation-filters="sRGB" id="filter4991">
   <feGaussianBlur id="feGaussianBlur4993" stdDeviation="8.196923"/>
  </filter>
  <filter color-interpolation-filters="sRGB" id="filter5283">
   <feGaussianBlur id="feGaussianBlur5285" stdDeviation="5.696724"/>
  </filter>
  <filter height="1.562389" y="-0.281195" width="1.233669" x="-0.116834" id="filter5554">
   <feGaussianBlur id="feGaussianBlur5556" stdDeviation="13.96576"/>
  </filter>
  <mask id="mask5562" maskUnits="userSpaceOnUse">
   <path fill="#ff0000" filter="url(#filter5554)" d="m17.958494,315.143066a49.27737,24.685648 0 1 1 -98.554731,0a49.27737,24.685648 0 1 1 98.554731,0z" id="path5564"/>
  </mask>
 </defs>
 <metadata id="metadata3023">image/svg+xml</metadata>
 <g>
  <title>Layer 1</title>
  <path fill="#008000" stroke="#000000" stroke-width="5" stroke-miterlimit="4" filter="url(#filter5283)" id="path3806" d="m1059.815063,260.854858c0,82.29129 -229.046753,149.001556 -511.590149,149.001556c-282.543579,0 -511.590126,-66.710266 -511.590126,-149.001556c0,-82.29129 229.046822,-149.001556 511.590126,-149.001556c282.543396,0 511.590149,66.710266 511.590149,149.001556z"/>
  <path opacity="0.464865" fill="#ffff00" filter="url(#filter4991)" d="m908.969482,212.224106l-183.901611,30.788849l179.569031,1.193115l-163.298096,14.754349l160.81488,26.400269l-203.032288,-13.785919l157.084717,40.949829l-174.875122,-15.757568l124.953491,46.589508l-162.947388,-37.08606l56.903748,57.667511l-120.262451,-53.060852l13.940918,67.861633l-56.155762,-64.506165l-65.722198,64.031067l-5.537964,-68.647705l-79.336029,55.933838l62.678101,-61.158142l-184.844421,47.107727l133.972168,-54.920624l-200.694611,27.029602l152.393707,-50.682129l-185.600342,15.189636l169.288025,-23.74704l-185.961502,-13.691406l215.591324,-4.61908l-189.888855,-28.64888l190.771912,11.642639l-134.174622,-47.952652l189.436859,35.148407l-90.336487,-65.704269l130.548676,46.124405l-25.86087,-53.444763l69.652405,47.845673l25.263336,-62.223587l50.973694,65.188538l81.058105,-61.8853l-26.793396,73.479004l99.936829,-48.760193l-84.102356,49.819l198.935913,-29.055145l-129.852356,44.36084l189.410889,-9.76796z" id="path4471"/>
 </g>
</svg>